# xmcd CD Database Entry
#
# Track frame offsets:
# 182
# 15367
# 30065
# 51105
# 66985
# 87025
# 100627
# 124045
# 137142
# 154445
# 166092
# 189490
# 211492
# 227775
# 242615
# 261667
# 311867
#
# Disc length: 4219 seconds
#
# Revision: 1
# Processed by: cddbd v1.4PL0 Copyright (c) Steve Scherf et al.
# Submitted via: tcd 2.0b
#
DISCID=e0107911
DTITLE=Stan Kenton/More Mellophonium Moods
DYEAR=1900
DGENRE=
TTITLE0=Fly Me To The Moon
TTITLE1=A Foggy Day
TTITLE2=Misty
TTITLE3=You Stepped Out Of A Dream
TTITLE4=Reuben's Blues
TTITLE5=Magic Moment
TTITLE6=The Blues Story
TTITLE7=Easy To Love
TTITLE8=Warm Blue Stream
TTITLE9=A Lot Of Livin' To Do
TTITLE10=My One And Only Love
TTITLE11=Maria
TTITLE12=Time After Time
TTITLE13=Love Walked In
TTITLE14=Like Someone In Love
TTITLE15=Closing Medley
TTITLE16=Artistry In Rhythm
EXTD=\n
EXTT0=
EXTT1=
EXTT2=
EXTT3=
EXTT4=
EXTT5=
EXTT6=
EXTT7=
EXTT8=
EXTT9=
EXTT10=
EXTT11=
EXTT12=
EXTT13=
EXTT14=
EXTT15=
EXTT16=
PLAYORDER=
